<?xml version="1.0" encoding="UTF-8"?>
<svg version="1.1" xmlns="http://www.w3.org/2000/svg" width="256" height="236">
<path d="M0 0 C84.48 0 168.96 0 256 0 C256 77.88 256 155.76 256 236 C171.52 236 87.04 236 0 236 C0 158.12 0 80.24 0 0 Z " fill="#FEFEFE" transform="translate(0,0)"/>
<path d="M0 0 C0.82643005 -0.00428513 1.65286011 -0.00857025 2.5043335 -0.01298523 C4.23888232 -0.0186957 5.97345507 -0.01925319 7.70800781 -0.01489258 C10.36564355 -0.01171125 13.02218735 -0.03530503 15.6796875 -0.06054688 C17.36979027 -0.06281803 19.05989602 -0.06352422 20.75 -0.0625 C21.54376038 -0.07170975 22.33752075 -0.08091949 23.15533447 -0.09040833 C28.58984377 -0.04453857 28.58984377 -0.04453857 31.11230469 1.63208008 C32.6629811 4.2272988 32.42272884 6.35525511 32.109375 9.30078125 C29.67202868 11.73812757 28.35888738 11.54099037 25.03239441 11.57723999 C24.33979019 11.57624298 23.64718597 11.57524597 22.93359375 11.57421875 C21.44986282 11.59454937 19.96613895 11.61540078 18.48242188 11.63671875 C16.15708503 11.65907542 13.83203024 11.67569131 11.5065918 11.68164062 C-3.26450986 11.74528859 -17.60122708 13.69022395 -28.921875 24.18359375 C-36.07272063 31.91014306 -39.06965711 39.51350745 -39.078125 49.98828125 C-39.09037109 50.76623047 -39.10261719 51.54417969 -39.11523438 52.34570312 C-39.14182261 62.97213487 -35.98875294 72.54954705 -28.84765625 80.60546875 C-21.12274918 87.85184175 -12.54766702 92.45242386 -1.890625 92.42578125 C-0.859375 92.42835938 0.171875 92.4309375 1.234375 92.43359375 C4.77402433 92.30395451 4.77402433 92.30395451 8.109375 91.30078125 C8.82572679 89.99347014 9.48587411 88.6548377 10.109375 87.30078125 C10.41709839 86.68311386 10.72482178 86.06544647 11.04187012 85.42906189 C11.52291199 84.46245384 11.52291199 84.46245384 12.01367188 83.47631836 C14.09231589 79.30079811 16.17368678 75.12664254 18.25585938 70.95288086 C19.14462721 69.17037552 20.03267138 67.38750914 20.91992188 65.60424805 C26.04132757 55.31234048 31.2459748 45.07577665 36.62991333 34.91854858 C40.58318482 27.44559149 44.31299418 19.87329025 47.98046875 12.25585938 C48.70556641 10.77956055 48.70556641 10.77956055 49.4453125 9.2734375 C50.07252197 7.97805054 50.07252197 7.97805054 50.71240234 6.65649414 C52.24427635 4.07329731 53.82857989 2.25058225 56.109375 0.30078125 C59.046875 -0.26171875 59.046875 -0.26171875 62.109375 0.30078125 C67.57446308 4.59018652 70.02109127 10.52397382 72.984375 16.67578125 C73.76893066 18.27703857 73.76893066 18.27703857 74.56933594 19.91064453 C76.09492506 23.03494162 77.60486059 26.16629054 79.109375 29.30078125 C79.51639648 30.14382812 79.92341797 30.986875 80.34277344 31.85546875 C86.109375 43.8279347 86.109375 43.8279347 86.109375 46.30078125 C81.819375 47.29078125 77.529375 48.28078125 73.109375 49.30078125 C72.26632813 47.5425 71.42328125 45.78421875 70.5546875 43.97265625 C69.44793388 41.66535633 68.3411621 39.35806511 67.234375 37.05078125 C66.40099609 35.31248047 66.40099609 35.31248047 65.55078125 33.5390625 C64.74833984 31.86650391 64.74833984 31.86650391 63.9296875 30.16015625 C63.19129639 28.62053223 63.19129639 28.62053223 62.43798828 27.04980469 C61.34611346 24.79061497 60.23899154 22.54126551 59.109375 20.30078125 C58.449375 20.30078125 57.789375 20.30078125 57.109375 20.30078125 C56.60486816 21.28473877 56.10036133 22.26869629 55.58056641 23.2824707 C53.70755641 26.9342894 51.83216566 30.584881 49.95605469 34.23510742 C49.14453219 35.81485176 48.33365494 37.39492773 47.5234375 38.9753418 C46.35846897 41.24745873 45.19118207 43.51837131 44.0234375 45.7890625 C43.66190582 46.49541336 43.30037415 47.20176422 42.92788696 47.92951965 C41.43495105 50.82786418 39.9200133 53.5848238 38.109375 56.30078125 C34.984375 56.48828125 34.984375 56.48828125 32.109375 56.30078125 C32.67591797 57.28216064 33.24246094 58.26354004 33.82617188 59.2746582 C34.79914177 61.56791776 35.20191011 62.83472044 34.71313477 65.29647827 C33.80405699 67.51452852 32.76764102 69.60297036 31.640625 71.71875 C31.24870972 72.49841629 30.85679443 73.27808258 30.45300293 74.08137512 C29.62088207 75.72383858 28.77620541 77.35999335 27.91992188 78.98999023 C26.61506241 81.47743937 25.35178734 83.98274175 24.09375 86.49414062 C23.27841267 88.09105653 22.46077849 89.68680225 21.640625 91.28125 C21.26329224 92.02610153 20.88595947 92.77095306 20.49719238 93.53837585 C17.74544764 98.73290501 14.90870206 101.96776836 9.484375 104.55078125 C-4.39660967 107.63544451 -18.4423084 102.61648975 -30.203125 95.25 C-41.18426999 87.28547769 -48.71489544 76.85137762 -50.890625 63.30078125 C-52.5139157 47.48967422 -50.72837274 33.55257701 -40.81640625 20.60546875 C-39.86314453 19.46464844 -39.86314453 19.46464844 -38.890625 18.30078125 C-38.24480469 17.51960938 -37.59898438 16.7384375 -36.93359375 15.93359375 C-27.43218104 5.46264913 -14.04454049 -0.01629234 0 0 Z " fill="#186691" transform="translate(91.890625,47.69921875)"/>
<path d="M0 0 C0.99 0.33 1.98 0.66 3 1 C-6.10362168 5.87720371 -15.20857538 10.74118561 -24.5625 15.125 C-25.18648682 15.41963135 -25.81047363 15.7142627 -26.45336914 16.01782227 C-30.74637896 18 -30.74637896 18 -33 18 C-31.17120603 22.00209021 -29.33659989 26.00148627 -27.5 30 C-26.95770752 31.18287598 -26.41541504 32.36575195 -25.85668945 33.58447266 C-22.47741037 40.91716319 -19.01978039 48.1895844 -15.1484375 55.27734375 C-13.83560031 57.77452768 -12.96236553 59.49653439 -13.17578125 62.3515625 C-14 64 -14 64 -16 65 C-21.74659864 65.46343537 -21.74659864 65.46343537 -24 65 C-26.99364778 62.36811561 -28.83646043 59.81636928 -30.5859375 56.25390625 C-31.03928467 55.33963867 -31.49263184 54.42537109 -31.9597168 53.48339844 C-32.42676025 52.51950195 -32.89380371 51.55560547 -33.375 50.5625 C-33.85815674 49.57926758 -34.34131348 48.59603516 -34.83911133 47.58300781 C-36.23718508 44.72722795 -37.62190397 41.86546612 -39 39 C-39.3604541 38.25153809 -39.7209082 37.50307617 -40.09228516 36.73193359 C-45 26.48398497 -45 26.48398497 -45 24 C-45.66 24.33 -46.32 24.66 -47 25 C-46.36224499 29.83158472 -44.3632354 33.73090419 -42.21875 38.0390625 C-41.84520386 38.80173431 -41.47165771 39.56440613 -41.08679199 40.35018921 C-39.89665376 42.77785368 -38.69872436 45.20156528 -37.5 47.625 C-36.30265333 50.05622419 -35.10696492 52.48824534 -33.91320801 54.92123413 C-33.17105702 56.43268749 -32.42658955 57.94300609 -31.67956543 59.45205688 C-30.28851448 62.27651211 -28.99698968 65.00903097 -28 68 C-31.77799893 66.55023864 -32.87803974 64.9295429 -34.55078125 61.30078125 C-34.99897217 60.34502197 -35.44716309 59.3892627 -35.90893555 58.40454102 C-36.37211182 57.38416748 -36.83528809 56.36379395 -37.3125 55.3125 C-37.79307861 54.27988037 -38.27365723 53.24726074 -38.76879883 52.18334961 C-39.73560464 50.1032032 -40.69717359 48.02061427 -41.65332031 45.93554688 C-43.17326038 42.62232002 -44.71877988 39.32167143 -46.26831055 36.0222168 C-47.52071526 33.3520833 -48.76114209 30.67644047 -50 28 C-52.97 28.33 -55.94 28.66 -59 29 C-58.48308594 29.83144531 -57.96617187 30.66289063 -57.43359375 31.51953125 C-56.77488281 32.60621094 -56.11617187 33.69289062 -55.4375 34.8125 C-54.77621094 35.89144531 -54.11492187 36.97039062 -53.43359375 38.08203125 C-52 41 -52 41 -53 44 C-55.375 45.75 -55.375 45.75 -58 47 C-61.69403861 45.7686538 -61.90976237 44.87467981 -63.69921875 41.52734375 C-64.18583984 40.62822266 -64.67246094 39.72910156 -65.17382812 38.80273438 C-65.9230957 37.38444336 -65.9230957 37.38444336 -66.6875 35.9375 C-67.19861328 34.98810547 -67.70972656 34.03871094 -68.23632812 33.06054688 C-69.49941894 30.71143406 -70.75349911 28.35794574 -72 26 C-69.39500576 23.89869374 -67.18395023 22.53116705 -63.98046875 21.5703125 C-62.82877197 21.21706909 -62.82877197 21.21706909 -61.65380859 20.85668945 C-60.83992676 20.61523193 -60.02604492 20.37377441 -59.1875 20.125 C-57.47494986 19.60127484 -55.76271367 19.07652207 -54.05078125 18.55078125 C-53.1995166 18.29119629 -52.34825195 18.03161133 -51.47119141 17.76416016 C-47.92113124 16.66638419 -44.39653035 15.49812933 -40.875 14.3125 C-39.75867188 13.93738281 -38.64234375 13.56226562 -37.4921875 13.17578125 C-35.76355469 12.59376953 -35.76355469 12.59376953 -34 12 C-32.60548732 11.53770439 -31.21095466 11.07546907 -29.81640625 10.61328125 C-24.21554947 8.74731784 -18.63875562 6.81302391 -13.0625 4.875 C-12.02287109 4.51535156 -10.98324219 4.15570313 -9.91210938 3.78515625 C-8.92146484 3.44097656 -7.93082031 3.09679687 -6.91015625 2.7421875 C-6.01433838 2.4313623 -5.11852051 2.12053711 -4.19555664 1.80029297 C-1.9982168 1.0465507 -1.9982168 1.0465507 0 0 Z " fill="#66C15B" transform="translate(219,89)"/>
<path d="M0 0 C3 1 3 1 4.41040039 3.25317383 C4.88469482 4.22794678 5.35898926 5.20271973 5.84765625 6.20703125 C6.37037109 7.26857422 6.89308594 8.33011719 7.43164062 9.42382812 C8.23891602 11.1012207 8.23891602 11.1012207 9.0625 12.8125 C9.60455078 13.91916016 10.14660156 15.02582031 10.70507812 16.16601562 C11.71424712 18.22801357 12.71930647 20.29203131 13.71899414 22.35864258 C14.79674217 24.58089452 15.88961707 26.79392607 17 29 C28.73296655 26.33770036 40.31700741 23.4775443 51.77636719 19.79248047 C57.7937134 17.8968567 57.7937134 17.8968567 60 19 C53.44979568 22.41715478 46.74180914 25.22002319 39.875 27.9375 C38.20232056 28.60108521 38.20232056 28.60108521 36.49584961 29.27807617 C25.59205886 33.58414812 14.71944507 37.59989528 3.4375 40.8125 C2.67445557 41.03204346 1.91141113 41.25158691 1.12524414 41.4777832 C-2.67645377 42.52592872 -6.01536719 43.27616267 -10 43 C-9.33291016 44.35544922 -9.33291016 44.35544922 -8.65234375 45.73828125 C-8.08644531 46.91777344 -7.52054688 48.09726563 -6.9375 49.3125 C-6.36902344 50.48425781 -5.80054688 51.65601563 -5.21484375 52.86328125 C-4 56 -4 56 -5 59 C-7.89558441 60.4477922 -9.74188938 61 -13 61 C-15.00678401 57.37871557 -17.0042648 53.75238357 -19 50.125 C-19.57234375 49.09246094 -20.1446875 48.05992188 -20.734375 46.99609375 C-21.27578125 46.00996094 -21.8171875 45.02382812 -22.375 44.0078125 C-22.87773438 43.09660645 -23.38046875 42.18540039 -23.8984375 41.24658203 C-25 39 -25 39 -25 37 C-24.07638672 36.94706787 -23.15277344 36.89413574 -22.20117188 36.83959961 C-18.85960413 36.31481898 -18.85960413 36.31481898 -17.22070312 33.65844727 C-16.74568359 32.63807373 -16.27066406 31.6177002 -15.78125 30.56640625 C-15.24113281 29.44169922 -14.70101562 28.31699219 -14.14453125 27.15820312 C-13.60183594 25.97162109 -13.05914062 24.78503906 -12.5 23.5625 C-11.41014206 21.24946421 -10.31643557 18.93823759 -9.21875 16.62890625 C-8.69023437 15.51273926 -8.16171875 14.39657227 -7.6171875 13.24658203 C-5.33626813 8.6675262 -2.73667583 4.3188936 0 0 Z " fill="#F0862A" transform="translate(149,67)"/>
<path d="M0 0 C3.95920442 3.42089882 5.86304579 7.2384265 8.07421875 11.87109375 C8.44352005 12.63043716 8.81282135 13.38978058 9.1933136 14.1721344 C9.96955408 15.77305652 10.74170922 17.37596519 11.51000977 18.98071289 C12.6841894 21.43059256 13.87324792 23.87281424 15.06445312 26.31445312 C15.81860423 27.87456724 16.5718889 29.43510055 17.32421875 30.99609375 C17.85543587 32.0869352 17.85543587 32.0869352 18.39738464 33.19981384 C20.10606973 36.78788694 21.46177989 40.01756013 22 44 C18.78563471 46.14291019 16.82573391 46.30025791 13.03515625 46.4609375 C10.10603711 45.79752856 8.98733814 44.21533469 7 42 C5.63134766 39.73266602 5.63134766 39.73266602 4.4140625 37.25390625 C3.73404175 35.88262573 3.73404175 35.88262573 3.0402832 34.48364258 C2.57323975 33.51966553 2.10619629 32.55568848 1.625 31.5625 C1.14184326 30.57854248 0.65868652 29.59458496 0.16088867 28.58081055 C-1.23623161 25.72533599 -2.62038217 22.86396426 -4 20 C-4.3604541 19.25685547 -4.7209082 18.51371094 -5.09228516 17.74804688 C-10 7.59760252 -10 7.59760252 -10 4 C-6.7 2.68 -3.4 1.36 0 0 Z " fill="#186691" transform="translate(184,108)"/>
<path d="M0 0 C3 1 3 1 4.42626953 3.23730469 C4.90692871 4.20571289 5.38758789 5.17412109 5.8828125 6.171875 C6.41003906 7.22890625 6.93726563 8.2859375 7.48046875 9.375 C8.02316406 10.48875 8.56585938 11.6025 9.125 12.75 C9.95064453 14.39742187 9.95064453 14.39742187 10.79296875 16.078125 C15.22247783 25.04597631 15.22247783 25.04597631 16 30 C14.68 30 13.36 30 12 30 C8.04 21.75 4.08 13.5 0 5 C0.80347993 9.01739963 1.4762753 11.2995564 3.28515625 14.79296875 C3.73310547 15.67017578 4.18105469 16.54738281 4.64257812 17.45117188 C5.11115234 18.35416016 5.57972656 19.25714844 6.0625 20.1875 C6.99445384 21.99165074 7.92301949 23.79755705 8.84765625 25.60546875 C9.26023682 26.40106201 9.67281738 27.19665527 10.09790039 28.01635742 C11 30 11 30 11 32 C7.2931535 32.67511469 3.58431256 33.33858041 -0.125 34 C-1.17171875 34.19078125 -2.2184375 34.3815625 -3.296875 34.578125 C-4.31523437 34.75859375 -5.33359375 34.9390625 -6.3828125 35.125 C-7.78104248 35.37636719 -7.78104248 35.37636719 -9.20751953 35.6328125 C-12.1684306 36.0221472 -15.01701762 36.06158415 -18 36 C-16.36082799 30.42681517 -13.85962752 25.4152694 -11.25 20.25 C-10.80479004 19.36344727 -10.35958008 18.47689453 -9.90087891 17.56347656 C-6.85007467 11.54154088 -3.67112699 5.67084658 0 0 Z " fill="#F8F9F9" transform="translate(149,67)"/>
<path d="M0 0 C2.371875 -0.103125 4.74375 -0.20625 7.1875 -0.3125 C7.92508545 -0.35802002 8.6626709 -0.40354004 9.42260742 -0.45043945 C13.40149506 -0.53372474 14.84725038 -0.12827705 17.92578125 2.45703125 C18.61027344 3.29621094 19.29476562 4.13539063 20 5 C20.33 5.33 20.66 5.66 21 6 C21.4416512 10.5863778 21.53395969 14.71849674 19.75 19 C17.81220354 21.21462453 16.74241402 21.96702405 14 23 C9.31930955 23.26474494 4.6923928 23.08689616 0 23 C0 15.41 0 7.82 0 0 Z " fill="#0C5C88" transform="translate(115,161)"/>
<path d="M0 0 C1.65 0 3.3 0 5 0 C16 21.72191011 16 21.72191011 16 25 C14.35 25 12.7 25 11 25 C10.80664062 24.35546875 10.61328125 23.7109375 10.4140625 23.046875 C9.11291753 20.65648799 9.11291753 20.65648799 5.9609375 20.390625 C4.18589844 20.32101563 4.18589844 20.32101563 2.375 20.25 C1.18648437 20.19328125 -0.00203125 20.1365625 -1.2265625 20.078125 C-2.59941406 20.03945312 -2.59941406 20.03945312 -4 20 C-4.99 22.475 -4.99 22.475 -6 25 C-7.32 25 -8.64 25 -10 25 C-9.39768601 21.43330196 -8.43842499 18.42191371 -6.93359375 15.13671875 C-6.53076172 14.25048828 -6.12792969 13.36425781 -5.71289062 12.45117188 C-5.29201172 11.53916016 -4.87113281 10.62714844 -4.4375 9.6875 C-4.01275391 8.75615234 -3.58800781 7.82480469 -3.15039062 6.86523438 C-2.10493657 4.5746328 -1.05468244 2.28636341 0 0 Z " fill="#216B93" transform="translate(181,160)"/>
<path d="M0 0 C5.78085505 1.15617101 7.11047684 3.06069263 10.3125 7.5625 C10.76689453 8.17802734 11.22128906 8.79355469 11.68945312 9.42773438 C12.80524319 10.94285983 13.90430371 12.47028033 15 14 C15.33 9.71 15.66 5.42 16 1 C17.32 1 18.64 1 20 1 C20 8.59 20 16.18 20 24 C15.05459381 22.76364845 13.59228369 20.35803376 10.75 16.4375 C10.29109375 15.82197266 9.8321875 15.20644531 9.359375 14.57226562 C8.23028585 13.05505208 7.11388857 11.52840817 6 10 C5.67 14.95 5.34 19.9 5 25 C3.35 25 1.7 25 0 25 C0 16.75 0 8.5 0 0 Z " fill="#297198" transform="translate(78,160)"/>
<path d="M0 0 C8.23602484 -0.48447205 8.23602484 -0.48447205 11.5625 1.625 C13.46543651 4.76898205 13.6646293 6.38146271 13 10 C11 12.875 11 12.875 8 15 C5.19242993 15.40997788 2.86006586 15.24237846 0 15 C0 10.05 0 5.1 0 0 Z " fill="#F3F7F9" transform="translate(119,165)"/>
<path d="M0 0 C3 1 3 1 4.42626953 3.23730469 C4.90692871 4.20571289 5.38758789 5.17412109 5.8828125 6.171875 C6.41003906 7.22890625 6.93726563 8.2859375 7.48046875 9.375 C8.02316406 10.48875 8.56585938 11.6025 9.125 12.75 C9.95064453 14.39742187 9.95064453 14.39742187 10.79296875 16.078125 C15.22247783 25.04597631 15.22247783 25.04597631 16 30 C14.68 30 13.36 30 12 30 C8.04 21.75 4.08 13.5 0 5 C-0.66 5.66 -1.32 6.32 -2 7 C-1.125 1.125 -1.125 1.125 0 0 Z " fill="#EAF0F2" transform="translate(149,67)"/>
<path d="M0 0 C3.44629634 3.79761781 3.43626386 6.63329825 3.3046875 11.58203125 C2.92209997 14.61820663 1.90422659 16.61971676 0 19 C-1.98 18.34 -3.96 17.68 -6 17 C-5.34 16.29875 -4.68 15.5975 -4 14.875 C-1.66748697 11.52201252 -1.39160845 9.99800164 -2 6 C-3.6376947 3.82849975 -4.58774237 3.09327418 -7.26171875 2.48828125 C-8.06222656 2.43027344 -8.86273438 2.37226563 -9.6875 2.3125 C-10.89986328 2.21388672 -10.89986328 2.21388672 -12.13671875 2.11328125 C-12.75160156 2.07589844 -13.36648437 2.03851563 -14 2 C-14 1.01 -14 0.02 -14 -1 C-4.18181818 -2.5828877 -4.18181818 -2.5828877 0 0 Z " fill="#1C668F" transform="translate(133,163)"/>
<path d="M0 0 C2.3125 -0.3125 2.3125 -0.3125 5 0 C6.9375 2.25 6.9375 2.25 8 5 C7.1875 7.125 7.1875 7.125 6 9 C5.87873219 12.20211302 5.87873219 12.20211302 7 16 C4.03 16 1.06 16 -2 16 C-1.01 13.03 -0.02 10.06 1 7 C0.01 7.99 -0.98 8.98 -2 10 C-2.66 10 -3.32 10 -4 10 C-2.8905928 6.51329166 -1.73662334 3.22515763 0 0 Z " fill="#266F97" transform="translate(181,160)"/>
<path d="M0 0 C1.32 0 2.64 0 4 0 C4 7.59 4 15.18 4 23 C-0.60192814 21.84951796 -1.57121141 20.95802585 -4 17 C-3.75 14.1875 -3.75 14.1875 -3 12 C-2.34 12.33 -1.68 12.66 -1 13 C-0.67 8.71 -0.34 4.42 0 0 Z " fill="#13628E" transform="translate(94,161)"/>
<path d="M0 0 C3.9841362 3.43240941 5.86839046 7.28017596 8.07421875 11.94140625 C8.44352005 12.70549301 8.81282135 13.46957977 9.1933136 14.25682068 C10.36589663 16.68835884 11.52658516 19.12537316 12.6875 21.5625 C13.47909127 23.20542833 14.27140149 24.84801047 15.06445312 26.49023438 C20.81089726 38.43269179 20.81089726 38.43269179 22 42 C18.22200107 40.55023864 17.12196026 38.9295429 15.44921875 35.30078125 C15.00102783 34.34518311 14.55283691 33.38958496 14.09106445 32.4050293 C13.62788818 31.38449463 13.16471191 30.36395996 12.6875 29.3125 C12.20692139 28.27843018 11.72634277 27.24436035 11.23120117 26.17895508 C10.26470101 24.09720016 9.30313276 22.01314791 8.34667969 19.92675781 C7.15884976 17.34523041 5.95080719 14.77533824 4.7265625 12.2109375 C0 2.27645706 0 2.27645706 0 0 Z " fill="#327397" transform="translate(169,115)"/>
<path d="M0 0 C-5.86395418 3.00646149 -11.79876406 5.70250978 -17.875 8.25 C-19.15503906 8.79527344 -19.15503906 8.79527344 -20.4609375 9.3515625 C-21.275625 9.69445312 -22.0903125 10.03734375 -22.9296875 10.390625 C-23.66429199 10.70032227 -24.39889648 11.01001953 -25.15576172 11.32910156 C-27 12 -27 12 -29 12 C-29 11.01 -29 10.02 -29 9 C-29.66 9 -30.32 9 -31 9 C-31 8.34 -31 7.68 -31 7 C-30.44127197 6.86424561 -29.88254395 6.72849121 -29.30688477 6.58862305 C-26.72445634 5.95880796 -24.14348956 5.3231848 -21.5625 4.6875 C-20.68400391 4.47416016 -19.80550781 4.26082031 -18.90039062 4.04101562 C-13.75049409 2.76779397 -8.76869589 1.30919723 -3.79272461 -0.53588867 C-2 -1 -2 -1 0 0 Z " fill="#F08930" transform="translate(209,86)"/>
<path d="M0 0 C1.32 0 2.64 0 4 0 C4 7.59 4 15.18 4 23 C2.68 23 1.36 23 0 23 C0 15.41 0 7.82 0 0 Z " fill="#10608C" transform="translate(152,161)"/>
<path d="M0 0 C1.32 0 2.64 0 4 0 C4 7.59 4 15.18 4 23 C2.68 23 1.36 23 0 23 C0 15.41 0 7.82 0 0 Z " fill="#10608D" transform="translate(57,161)"/>
<path d="M0 0 C0.99 0.33 1.98 0.66 3 1 C-0.06032459 2.62912132 -3.12363037 4.252557 -6.1875 5.875 C-7.48397461 6.56529297 -7.48397461 6.56529297 -8.80664062 7.26953125 C-9.64775391 7.71425781 -10.48886719 8.15898438 -11.35546875 8.6171875 C-12.51018677 9.22989502 -12.51018677 9.22989502 -13.68823242 9.85498047 C-16.08229997 11.04076321 -18.50776212 12.04011256 -21 13 C-20.67 12.01 -20.34 11.02 -20 10 C-20.66 9.34 -21.32 8.68 -22 8 C-21.40461426 7.79318604 -20.80922852 7.58637207 -20.19580078 7.37329102 C-17.50504717 6.43775366 -14.81501718 5.50015265 -12.125 4.5625 C-11.18785156 4.23701172 -10.25070313 3.91152344 -9.28515625 3.57617188 C-7.94130859 3.10727539 -7.94130859 3.10727539 -6.5703125 2.62890625 C-5.74289551 2.34088135 -4.91547852 2.05285645 -4.06298828 1.75610352 C-1.97762032 1.03552089 -1.97762032 1.03552089 0 0 Z " fill="#71C465" transform="translate(219,89)"/>
<path d="M0 0 C2.78278515 2.43984885 4.13396297 4.99114467 5.69921875 8.32421875 C6.18583984 9.35224609 6.67246094 10.38027344 7.17382812 11.43945312 C7.67333984 12.51130859 8.17285156 13.58316406 8.6875 14.6875 C9.45416992 16.31268555 9.45416992 16.31268555 10.23632812 17.97070312 C11.49665767 20.64448638 12.75095188 23.32093281 14 26 C13.01 26 12.02 26 11 26 C9.15359363 22.4232573 7.32519502 18.83760692 5.5 15.25 C4.97535156 14.23421875 4.45070312 13.2184375 3.91015625 12.171875 C3.41386719 11.1921875 2.91757813 10.2125 2.40625 9.203125 C1.94541016 8.30239258 1.48457031 7.40166016 1.00976562 6.47363281 C0 4 0 4 0 0 Z " fill="#307194" transform="translate(148,71)"/>
<path d="M0 0 C0.66 0 1.32 0 2 0 C3.06092734 1.90607285 4.09820101 3.82532746 5.125 5.75 C5.70507812 6.81734375 6.28515625 7.8846875 6.8828125 8.984375 C8 12 8 12 7.1796875 14.390625 C6.59574219 15.18726563 6.59574219 15.18726563 6 16 C3.91656096 13.49987316 2.28566695 10.85804682 0.75 8 C0.39421875 7.34 0.0384375 6.68 -0.328125 6 C-1.13384316 3.60158317 -0.81998065 2.35481623 0 0 Z " fill="#E7F0F2" transform="translate(172,113)"/>
<path d="M0 0 C0.66 0 1.32 0 2 0 C2 4.95 2 9.9 2 15 C4.64 15 7.28 15 10 15 C10.33 15.99 10.66 16.98 11 18 C7.37 18 3.74 18 0 18 C0 12.06 0 6.12 0 0 Z " fill="#186893" transform="translate(116,165)"/>
<path d="M0 0 C1.3125 2.125 1.3125 2.125 2 4 C1.34 4.66 0.68 5.32 0 6 C-0.639375 5.525625 -1.27875 5.05125 -1.9375 4.5625 C-5.92181519 2.52968613 -9.58494074 2.2789471 -14 2 C-14 1.01 -14 0.02 -14 -1 C-4.08368513 -2.59870872 -4.08368513 -2.59870872 0 0 Z " fill="#2A7097" transform="translate(133,163)"/>
<path d="M0 0 C3.44216672 2.6598561 3.99504674 5.90288286 5 10 C2.03 10 -0.94 10 -4 10 C-2.8905928 6.51329166 -1.73662334 3.22515763 0 0 Z " fill="#DEEAEE" transform="translate(183,166)"/>
<path d="M0 0 C0.66 0.33 1.32 0.66 2 1 C-3.25184831 3.71970716 -8.43067543 6.01095551 -14 8 C-14 7.34 -14 6.68 -14 6 C-15.32 5.67 -16.64 5.34 -18 5 C-16.95199219 4.72285156 -15.90398437 4.44570312 -14.82421875 4.16015625 C-13.44529933 3.79432048 -12.0663938 3.42843233 -10.6875 3.0625 C-9.65206055 2.78889648 -9.65206055 2.78889648 -8.59570312 2.50976562 C-5.70112156 1.7406739 -2.84215271 0.94738424 0 0 Z " fill="#EC9F56" transform="translate(207,85)"/>
<path d="M0 0 C2.81631641 2.49493496 4.40955981 5.26562818 6.1875 8.5625 C6.71730469 9.53316406 7.24710938 10.50382813 7.79296875 11.50390625 C9 14 9 14 9 16 C6.10794555 14.955647 5.11341826 14.19072175 3.515625 11.50390625 C3.09796875 10.53324219 2.6803125 9.56257812 2.25 8.5625 C1.82203125 7.59441406 1.3940625 6.62632812 0.953125 5.62890625 C0 3 0 3 0 0 Z " fill="#276B91" transform="translate(182,141)"/>
<path d="M0 0 C0.99 0 1.98 0 3 0 C3.6875 1.8125 3.6875 1.8125 4 4 C2.5625 5.75 2.5625 5.75 1 7 C-1.475 6.01 -1.475 6.01 -4 5 C-2.1875 2.5 -2.1875 2.5 0 0 Z " fill="#276F96" transform="translate(131,175)"/>
<path d="M0 0 C0.66 0 1.32 0 2 0 C1.38461538 5.53846154 1.38461538 5.53846154 -0.5625 7.875 C-1.2740625 8.431875 -1.2740625 8.431875 -2 9 C-2.66 7.35 -3.32 5.7 -4 4 C-3.01 3.67 -2.02 3.34 -1 3 C-0.67 2.01 -0.34 1.02 0 0 Z " fill="#19658F" transform="translate(180,167)"/>
<path d="M0 0 C-1.40453643 0.89434157 -2.82421869 1.76493192 -4.25 2.625 C-5.03890625 3.11226563 -5.8278125 3.59953125 -6.640625 4.1015625 C-9 5 -9 5 -11.296875 4.1484375 C-11.85890625 3.76945312 -12.4209375 3.39046875 -13 3 C-11.40084119 2.30093058 -9.79544955 1.61610532 -8.1875 0.9375 C-7.29417969 0.55464844 -6.40085938 0.17179687 -5.48046875 -0.22265625 C-3 -1 -3 -1 0 0 Z " fill="#8DCE84" transform="translate(222,90)"/>
<path d="M0 0 C-1.375 1.5 -1.375 1.5 -3 3 C-3.66 3 -4.32 3 -5 3 C-5 2.34 -5 1.68 -5 1 C-7.64 1 -10.28 1 -13 1 C-13 0.67 -13 0.34 -13 0 C-8.34462607 -0.83796731 -4.62921525 -1.0161692 0 0 Z " fill="#13608B" transform="translate(132,181)"/>
<path d="M0 0 C3.0916909 2.52956528 3.90931332 5.22454612 5 9 C4.01 9.495 4.01 9.495 3 10 C0.96564469 6.27034861 0 4.33094958 0 0 Z " fill="#387699" transform="translate(148,71)"/>
</svg>
